<?xml version="1.0" encoding="utf-8"?>
<!-- Generator: Adobe Illustrator 16.0.0, SVG Export Plug-In . SVG Version: 6.00 Build 0)  -->
<!DOCTYPE svg PUBLIC "-//W3C//DTD SVG 1.1//EN" "http://www.w3.org/Graphics/SVG/1.1/DTD/svg11.dtd">
<svg version="1.1" id="Layer_1" xmlns="http://www.w3.org/2000/svg" xmlns:xlink="http://www.w3.org/1999/xlink" x="0px" y="0px"
	 width="466px" height="234px" viewBox="0 0 466 234" enable-background="new 0 0 466 234" xml:space="preserve">
<path fill-rule="evenodd" clip-rule="evenodd" d="M115.381,173.838c-5.845,4.597-11.071,8.915-16.51,12.948
	c-20.457,15.169-44.307,21.166-68.856,25.155c-5.974,0.97-11.405-0.321-14.897-5.727c-3.343-5.173-2.126-10.413,0.826-15.309
	c4.368-7.241,8.927-14.368,13.383-21.557c5.643-9.104,5.13-14.805-2.024-22.866c-3.127-3.524-6.286-7.021-9.382-10.573
	c-7.559-8.674-7.721-22.346-0.358-31.171c3.32-3.979,6.739-7.876,10.078-11.841c5.7-6.761,6.204-13.044,1.37-20.638
	c-4.291-6.74-8.906-13.273-13.227-19.998c-3.526-5.488-6.403-11.344-2.526-17.757c4.067-6.727,10.674-6.727,17.528-5.876
	c29.176,3.616,55.721,13.296,77.832,33.385c1.354,1.229,3.049,2.086,4.968,3.373c30.949-36.432,71.401-51.382,117.701-51.836
	c46.049-0.452,86.584,13.62,118.49,49.262c7.197-5.468,14.207-10.838,21.262-16.147C390.338,32.145,413,26.911,436.235,23.951
	c11.892-1.517,18.673,8.811,13.175,19.483c-4.074,7.911-9.23,15.271-13.96,22.843c-5.915,9.468-5.476,15.033,1.958,23.428
	c2.967,3.352,5.945,6.691,8.91,10.045c7.929,8.97,8.139,22.601,0.474,31.707c-3.185,3.785-6.407,7.539-9.618,11.303
	c-6.029,7.067-6.562,13.35-1.523,21.189c4.32,6.724,9.189,13.117,13.133,20.049c2.121,3.728,3.787,8.243,3.915,12.457
	c0.208,6.926-6.188,12.043-14.303,11.129c-26.689-3.006-52.356-9.299-74.351-25.923c-4.303-3.252-8.586-6.525-13.594-10.33
	c-30.678,35.634-70.852,50.584-116.816,51.113C187.826,222.974,147.529,208.932,115.381,173.838z M149.142,51.063
	c-3.917,2.979-7.357,5.345-10.519,8.038c-40.111,34.16-40.384,85.472,0.526,119.207c28.178,23.237,61.521,31.39,97.404,30.71
	c6.139-0.116,12.262-1.072,19.609-1.752C210.409,161.08,173.3,111.026,149.142,51.063z M318,182.72
	c-2.182-2.363-3.975-4.178-5.627-6.11c-11.627-13.597-23.599-26.92-34.757-40.893c-25.856-32.379-49.569-66.25-69.618-102.601
	c-0.875-1.585-3.605-3.434-5.133-3.174c-14.401,2.453-28.202,6.813-41.525,14.069c1.188,3.27,2.095,6.146,3.261,8.912
	c13.597,32.248,30.935,62.427,52.868,89.632c15.785,19.577,33.18,37.863,50.027,56.572c1.727,1.917,5.018,4.356,6.918,3.884
	C289.974,199.139,304.588,193.006,318,182.72z M328.267,174.042c21.632-17.586,31.746-46.172,26.303-70.308
	c-5.445-24.147-20.218-41.427-40.646-54.41c-28.229-17.939-59.235-23.959-93.501-21.903
	C250.727,81.421,287.307,129.322,328.267,174.042z M107.077,162.355c-0.209-0.65-0.298-1.122-0.506-1.534
	c-0.74-1.469-1.553-2.901-2.28-4.376c-10.501-21.309-12.341-43.201-4.339-65.724c1.631-4.591,5.711-9.864,4.538-13.488
	c-1.349-4.162-7.271-6.854-11.228-10.161c-19.372-16.18-42.421-22.376-68.03-25.271c5.497,8.396,10.39,15.82,15.236,23.276
	c8.082,12.434,6.883,26.677-3.128,37.628C21.37,120.17,21.37,120.17,37.688,137.459c10.467,11.091,11.758,25.189,3.577,38.149
	c-4.623,7.321-9.133,14.714-14.184,22.863C57.949,194.506,85.013,184.631,107.077,162.355z M437.363,37.646
	c-30.282,2.703-55.674,14.193-76.896,34.64c-1.219,1.173-0.981,5.082-0.046,7.068c6.768,14.361,10.952,29.391,8.482,45.153
	c-1.9,12.116-5.945,23.896-9.184,36.395c21.187,20.541,48.412,29.8,79.416,33.1c-5.317-8.16-10.041-15.436-14.789-22.694
	c-8.391-12.838-7.287-27.014,2.99-38.183c15.773-17.141,15.771-17.657-0.154-34.258c-10.874-11.335-12.221-25.265-3.805-38.646
	C427.971,52.917,432.467,45.555,437.363,37.646z"/>
<path fill-rule="evenodd" clip-rule="evenodd" fill="none" d="M365.971-58.748c-22.063,22.275-49.127,32.15-79.997,36.116
	c5.051-8.149,9.562-15.542,14.184-22.863c8.182-12.96,6.89-27.059-3.577-38.149c-16.317-17.289-16.317-17.289-0.348-34.753
	c10.011-10.951,11.209-25.194,3.128-37.628c-4.846-7.456-9.739-14.881-15.236-23.276c25.609,2.895,48.658,9.091,68.03,25.271
	c3.957,3.307,9.879,5.999,11.228,10.161c1.173,3.624-2.907,8.897-4.538,13.488c-8.001,22.522-6.162,44.415,4.339,65.724
	c0.727,1.475,1.54,2.907,2.28,4.376C365.672-59.87,365.762-59.398,365.971-58.748z"/>
<text transform="matrix(1 0 0 1 399.5801 -434.6348)" font-family="'HemiHeadRg-BoldItalic'" font-size="59.25">Proto-Tip</text>
<ellipse fill-rule="evenodd" clip-rule="evenodd" cx="234" cy="114.771" rx="131" ry="101.229"/>
<text transform="matrix(1 0 0 1 135 160.9385)" fill="#FFFFFF" font-family="'HemiHeadRg-BoldItalic'" font-size="150.5468">tip</text>
</svg>
